<?xml version="1.0" encoding="utf-8"?>
<!-- Svg Vector Icons : http://www.onlinewebfonts.com/icon -->
<!DOCTYPE svg PUBLIC "-//W3C//DTD SVG 1.1//EN" "http://www.w3.org/Graphics/SVG/1.1/DTD/svg11.dtd">
<svg version="1.1" xmlns="http://www.w3.org/2000/svg" xmlns:xlink="http://www.w3.org/1999/xlink" x="0px" y="0px" viewBox="0 0 256 256" enable-background="new 0 0 256 256" xml:space="preserve">
<metadata> Svg Vector Icons : http://www.onlinewebfonts.com/icon </metadata>
<g><g><path fill="#000000" d="M185.4,243.4c-13.4,0-29.4-4-48.1-13.4c-21.4-10.7-44.1-26.7-65.5-48.1c-20-20-37.4-42.7-48.1-65.5C6.3,81.7,5,52.3,22.4,36.3c4-4,10.7-4,13.4,0c4,4,2.7,9.3,0,13.4c-10.7,12-8,32.1,5.3,58.8c10.7,20,25.4,41.4,44.1,60.1s40.1,33.4,60.1,44.1c25.4,13.4,48.1,14.7,58.8,5.3c4-4,9.3-4,13.4,0c4,4,4,10.7,0,14.7C209.4,239.4,198.7,243.4,185.4,243.4L185.4,243.4z"/><path fill="#000000" d="M82.5,120.5c-4,0-5.3-1.3-8-5.3c-2.7-5.3-2.7-10.7,2.7-13.4l25.4-10.7c4-1.3,9.3-6.7,8-13.4c-1.3-2.7-2.7-5.3-4-6.7L71.8,36.3c-4-4-9.3-4-13.4-2.7C53.1,35,49.1,39,43.7,43c-2.7,2.7-6.7,6.7-9.3,9.3l0,0c-4,4-10.7,4-13.4,0c-4-4-4-10.7,0-14.7l16-16c4-4,9.3-6.7,13.4-8c12-2.7,25.4,0,34.8,8l34.7,34.8c5.3,5.3,8,12,9.3,18.7c1.3,13.4-4,25.4-21.4,34.8l-21.4,9.3C83.8,120.5,83.8,120.5,82.5,120.5z"/><path fill="#000000" d="M210.8,235.4c-2.7,0-5.3-1.3-6.7-2.7c-2.7-2.7-4-6.7-2.7-10.7c1.3-2.7,5.3-5.3,8-8c4-4,10.7-10.7,13.4-16c2.7-5.3,1.3-12-2.7-14.7l-33.4-33.4c-2.7-2.7-5.3-4-6.7-4c-6.7-1.3-10.7,2.7-13.4,8L156,176.6c-2.7,5.3-8,6.7-13.4,2.7c-5.3-2.7-6.7-8-4-12l10.7-22.7c6.7-13.4,20-21.4,34.8-18.7c6.7,1.3,13.4,4,18.7,9.3l33.4,33.4c9.3,9.3,12,21.4,8,33.4c-2.7,5.3-9.3,16-26.7,30.7l0,0C214.8,234.1,213.5,235.4,210.8,235.4z"/><path fill="#000000" d="M145.3,182c-1.3,0-5.3,0-6.7-1.3c-12-9.3-24.1-18.7-36.1-29.4c-12-12-22.7-24.1-29.4-36.1c-2.7-4-2.7-10.7,2.7-13.4c5.3-2.7,10.7-1.3,14.7,1.3c8,10.7,17.4,22.7,28.1,33.4c10.7,10.7,21.4,20,33.4,28.1c5.3,2.7,6.7,8,2.7,13.4C153.3,180.6,149.3,182,145.3,182L145.3,182z"/></g></g>
</svg>